0
SECTION
2
HEADER
9
$INSUNITS
70
4
9
$ACADVER
1
AC1014
9
$HANDSEED
5
FFFF
0
ENDSEC
0
SECTION
2
TABLES
0
TABLE
2
VPORT
5
8
100
AcDbSymbolTable
0
ENDTAB
0
TABLE
2
LTYPE
5
5
100
AcDbSymbolTable
0
LTYPE
5
14
100
AcDbSymbolTableRecord
100
AcDbLinetypeTableRecord
2
BYBLOCK
70
0
0
LTYPE
5
15
100
AcDbSymbolTableRecord
100
AcDbLinetypeTableRecord
2
BYLAYER
70
0
0
ENDTAB
0
TABLE
2
LAYER
5
2
100
AcDbSymbolTable
70
2
0
LAYER
5
50
100
AcDbSymbolTableRecord
100
AcDbLayerTableRecord
2
0
70
0
6
CONTINUOUS
0
ENDTAB
0
TABLE
2
STYLE
5
3
100
AcDbSymbolTable
70
1
0
STYLE
5
11
100
AcDbSymbolTableRecord
100
AcDbTextStyleTableRecord
2
STANDARD
70
0
0
ENDTAB
0
TABLE
2
VIEW
5
6
100
AcDbSymbolTable
70
0
0
ENDTAB
0
TABLE
2
UCS
5
7
100
AcDbSymbolTable
70
0
0
ENDTAB
0
TABLE
2
APPID
5
9
100
AcDbSymbolTable
70
2
0
APPID
5
12
100
AcDbSymbolTableRecord
100
AcDbRegAppTableRecord
2
ACAD
70
0
0
ENDTAB
0
TABLE
2
DIMSTYLE
5
A
100
AcDbSymbolTable
70
1
0
ENDTAB
0
TABLE
2
BLOCK_RECORD
5
1
100
AcDbSymbolTable
70
1
0
BLOCK_RECORD
5
1F
100
AcDbSymbolTableRecord
100
AcDbBlockTableRecord
2
*MODEL_SPACE
0
BLOCK_RECORD
5
1B
100
AcDbSymbolTableRecord
100
AcDbBlockTableRecord
2
*PAPER_SPACE
0
ENDTAB
0
ENDSEC
0
SECTION
2
BLOCKS
0
BLOCK
5
20
100
AcDbEntity
100
AcDbBlockBegin
2
*MODEL_SPACE
0
ENDBLK
5
21
100
AcDbEntity
100
AcDbBlockEnd
0
BLOCK
5
1C
100
AcDbEntity
100
AcDbBlockBegin
2
*PAPER_SPACE
0
ENDBLK
5
1D
100
AcDbEntity
100
AcDbBlockEnd
0
ENDSEC
0
SECTION
2
ENTITIES
0
LWPOLYLINE
5
100
100
AcDbEntity
8
0
100
AcDbPolyline
90
53
70
1
43
0.0
10
11.508246845541382
20
17.855324494843845
10
7.6096701121435224
20
14.581015490823487
42
-0.66817863791929488
10
7.2817962805239658
20
14.751506819148519
10
7.5421630649119944
20
17.743141828212
10
5.5496948045180439
20
17.916549530816852
10
5.0381420818337039
20
12.038768162654709
42
0.41421356237309842
10
5.9476723607282489
20
10.955830181155306
10
11.825453728890395
20
10.444277458470967
10
11.998861431495268
20
12.436745718864916
10
9.0072264014377055
20
12.697112505080089
42
-0.66817863791929089
10
8.8959401661180308
20
13.049509889184019
10
12.857953937751239
20
16.377097943403122
10
18.010051321885939
20
15.928702659654576
10
21.337639376105059
20
11.966688888021386
42
-0.66817863791932575
10
21.167148047780042
20
11.638815056401818
10
18.17551303871651
20
11.899181840789844
10
18.002105336111651
20
9.9067135803958912
10
23.879886704273808
20
9.3951608577115628
42
0.41421356237309187
10
24.962824685773199
20
10.304691136606106
10
25.474377408457535
20
16.182472504768256
10
23.481909148063586
20
16.355880207373112
10
23.221542361848428
20
13.36424517731556
42
-0.66817863791928411
10
22.869144977744501
20
13.252958941995875
10
19.594835973724123
20
17.151535675393738
42
-0.19891236737964865
10
19.548739705749274
20
17.297503451234384
10
19.98276942505003
20
22.284539360158497
42
-0.19891236737964149
10
20.053389245509262
20
22.42034914796254
10
23.951965978907104
20
25.694658151982914
42
-0.66817863791932863
10
24.279839810526688
20
25.524166823657882
10
24.019473026138662
20
22.532531814594364
10
26.011941286532604
20
22.359124111989495
10
26.52349400921695
20
28.236905480151645
42
0.4142135623730937
10
25.613963730322414
20
29.31984346165104
10
19.736182362160246
20
29.831396184335375
10
19.562774659555394
20
27.838927923941448
10
22.554409689612953
20
27.578561137726258
42
-0.6681786379193061
10
22.665695924932628
20
27.226163753622323
10
18.703682153299411
20
23.898575699403224
10
13.757911613178013
20
24.329014027592052
42
-0.19891236737964693
10
13.418387143667896
20
24.505563578740116
10
10.223996714945621
20
28.308984754784973
42
-0.66817863791928911
10
10.394488043270641
20
28.636858586404536
10
13.386123052334142
20
28.376491802016499
10
13.559530754939001
20
30.368960062410437
10
7.6817493867768496
20
30.880512785094794
42
0.41421356237309614
10
6.5988114052774396
20
29.970982506200244
10
6.0872586825931005
20
24.093201138038104
10
8.0797269429870617
20
23.919793435433242
10
8.3400937292022235
20
26.9114284654908
42
-0.66817863791930576
10
8.6924911133061595
20
27.022714700810475
10
11.966800117326525
20
23.124137967412612
42
-0.1989123673796476
10
12.012896385301374
20
22.978170191571969
10
11.578866666000616
20
17.991134282647895
42
-0.19891236737964785
0
CIRCLE
5
101
100
AcDbEntity
8
0
100
AcDbCircle
10
15.780818045525326
20
20.137836821403173
30
0
40
2.4999999999999964
210
1.3344222805578068e-16
220
-6.7334679968059179e-17
230
1
0
LWPOLYLINE
5
102
100
AcDbEntity
8
0
100
AcDbPolyline
90
53
70
1
43
0.0
10
23.951964844600472
20
25.694659570245793
10
20.053388111202604
20
22.42035056622543
42
0.1989123673796388
10
19.98276829074333
20
22.284540778421448
10
19.548738571442556
20
17.297504869497335
42
0.1989123673796655
10
19.594834839417416
20
17.151537093656678
10
22.869143843437769
20
13.2529603602588
42
0.66817863791929344
10
23.221541227541724
20
13.364246595578496
10
23.481908013756893
20
16.355881625636059
10
25.474376274150842
20
16.182473923031203
10
24.962823551466506
20
10.304692554869046
42
-0.41421356237309553
10
23.879885569967101
20
9.3951622759744957
10
18.00210420180494
20
9.9067149986588348
10
18.175511904409788
20
11.899183259052791
10
21.167146913473317
20
11.638816474664758
42
0.6681786379193011
10
21.337638241798334
20
11.966690306284328
10
18.010050187579196
20
15.928704077917494
10
12.857952803444519
20
16.377099361666069
10
8.8959390318113041
20
13.049511307446959
42
0.66817863791930709
10
9.007225267130984
20
12.697113923343025
10
11.998860297188539
20
12.436747137127853
10
11.825452594583673
20
10.4442788767339
10
5.9476712264215124
20
10.955831599418246
42
-0.41421356237309165
10
5.0381409475269754
20
12.03876958091765
10
5.5496936702113135
20
17.916550949079806
10
7.5421619306052641
20
17.743143246474947
10
7.2817951462172426
20
14.751508237411455
42
0.66817863791928156
10
7.6096689778368063
20
14.581016909086431
10
11.508245711234666
20
17.855325913106793
42
0.19891236737965487
10
11.578865531693898
20
17.991135700910853
10
12.012895250994662
20
22.978171609834931
42
0.19891236737964599
10
11.966798983019816
20
23.124139385675573
10
8.6924899789994612
20
27.022716119073454
42
0.66817863791929377
10
8.3400925948955109
20
26.911429883753769
10
8.0797258086803385
20
23.919794853696203
10
6.0872575482863747
20
24.093202556301058
10
6.598810270970727
20
29.970983924463212
42
-0.41421356237309481
10
7.6817482524701362
20
30.880514203357755
10
13.559529620632302
20
30.368961480673423
10
13.386121918027431
20
28.376493220279468
10
10.394486908963938
20
28.636860004667493
42
0.66817863791929499
10
10.223995580638906
20
28.308986173047938
10
13.418386009361198
20
24.505564997003081
42
0.19891236737964174
10
13.757910478871295
20
24.329015445855013
10
18.703681018992718
20
23.898577117666193
10
22.66569479062597
20
27.226165171885249
42
0.66817863791932397
10
22.55440855530626
20
27.578562555989233
10
19.562773525248687
20
27.838929342204395
10
19.73618122785355
20
29.831397602598347
10
25.61396259601571
20
29.319844879914008
42
-0.4142135623730912
10
26.523492874910247
20
28.236906898414603
10
26.011940152225907
20
22.359125530252449
10
24.019471891831962
20
22.532533232857304
10
24.279838676219981
20
25.524168241920833
42
0.66817863791930576
0
CIRCLE
5
103
100
AcDbEntity
8
0
100
AcDbCircle
10
15.780816911218613
20
20.137838239666124
30
0
40
2.5
210
5.55111509678237e-17
220
5.5511151494691961e-17
230
1
0
ENDSEC
0
SECTION
2
OBJECTS
0
DICTIONARY
5
C
100
AcDbDictionary
3
ACAD_GROUP
350
D
3
ACAD_MLINESTYLE
350
17
0
DICTIONARY
5
D
100
AcDbDictionary
0
DICTIONARY
5
1A
330
C
100
AcDbDictionary
0
DICTIONARY
5
17
100
AcDbDictionary
0
ENDSEC
0
EOF
