0
SECTION
2
HEADER
9
$INSUNITS
70
4
9
$ACADVER
1
AC1014
9
$HANDSEED
5
FFFF
0
ENDSEC
0
SECTION
2
TABLES
0
TABLE
2
VPORT
5
8
100
AcDbSymbolTable
0
ENDTAB
0
TABLE
2
LTYPE
5
5
100
AcDbSymbolTable
0
LTYPE
5
14
100
AcDbSymbolTableRecord
100
AcDbLinetypeTableRecord
2
BYBLOCK
70
0
0
LTYPE
5
15
100
AcDbSymbolTableRecord
100
AcDbLinetypeTableRecord
2
BYLAYER
70
0
0
ENDTAB
0
TABLE
2
LAYER
5
2
100
AcDbSymbolTable
70
2
0
LAYER
5
50
100
AcDbSymbolTableRecord
100
AcDbLayerTableRecord
2
0
70
0
6
CONTINUOUS
0
ENDTAB
0
TABLE
2
STYLE
5
3
100
AcDbSymbolTable
70
1
0
STYLE
5
11
100
AcDbSymbolTableRecord
100
AcDbTextStyleTableRecord
2
STANDARD
70
0
0
ENDTAB
0
TABLE
2
VIEW
5
6
100
AcDbSymbolTable
70
0
0
ENDTAB
0
TABLE
2
UCS
5
7
100
AcDbSymbolTable
70
0
0
ENDTAB
0
TABLE
2
APPID
5
9
100
AcDbSymbolTable
70
2
0
APPID
5
12
100
AcDbSymbolTableRecord
100
AcDbRegAppTableRecord
2
ACAD
70
0
0
ENDTAB
0
TABLE
2
DIMSTYLE
5
A
100
AcDbSymbolTable
70
1
0
ENDTAB
0
TABLE
2
BLOCK_RECORD
5
1
100
AcDbSymbolTable
70
1
0
BLOCK_RECORD
5
1F
100
AcDbSymbolTableRecord
100
AcDbBlockTableRecord
2
*MODEL_SPACE
0
BLOCK_RECORD
5
1B
100
AcDbSymbolTableRecord
100
AcDbBlockTableRecord
2
*PAPER_SPACE
0
ENDTAB
0
ENDSEC
0
SECTION
2
BLOCKS
0
BLOCK
5
20
100
AcDbEntity
100
AcDbBlockBegin
2
*MODEL_SPACE
0
ENDBLK
5
21
100
AcDbEntity
100
AcDbBlockEnd
0
BLOCK
5
1C
100
AcDbEntity
100
AcDbBlockBegin
2
*PAPER_SPACE
0
ENDBLK
5
1D
100
AcDbEntity
100
AcDbBlockEnd
0
ENDSEC
0
SECTION
2
ENTITIES
0
LWPOLYLINE
5
100
100
AcDbEntity
8
0
100
AcDbPolyline
90
4
70
1
43
0.0
10
0
20
0
10
160
20
0
10
160
20
130
10
0
20
130
0
CIRCLE
5
101
100
AcDbEntity
8
0
100
AcDbCircle
10
10
20
10
30
0
40
2
210
0
220
0
230
1
0
CIRCLE
5
102
100
AcDbEntity
8
0
100
AcDbCircle
10
10
20
25
30
0
40
2.0000000000000009
210
0
220
0
230
1
0
CIRCLE
5
103
100
AcDbEntity
8
0
100
AcDbCircle
10
150
20
25
30
0
40
2.0000000000000009
210
0
220
0
230
1
0
CIRCLE
5
104
100
AcDbEntity
8
0
100
AcDbCircle
10
150
20
10
30
0
40
2
210
0
220
0
230
1
0
CIRCLE
5
105
100
AcDbEntity
8
0
100
AcDbCircle
10
10.000000000000002
20
50
30
0
40
2.0000000000000018
210
0
220
0
230
1
0
CIRCLE
5
106
100
AcDbEntity
8
0
100
AcDbCircle
10
150
20
50
30
0
40
2.0000000000000018
210
0
220
0
230
1
0
CIRCLE
5
107
100
AcDbEntity
8
0
100
AcDbCircle
10
55
20
50
30
0
40
1.9999999999999951
210
0
220
0
230
1
0
CIRCLE
5
108
100
AcDbEntity
8
0
100
AcDbCircle
10
105
20
50
30
0
40
1.9999999999999956
210
0
220
0
230
1
0
LWPOLYLINE
5
109
100
AcDbEntity
8
0
100
AcDbPolyline
90
7
70
1
43
0.0
10
370
20
59.999999999999972
10
370
20
10
10
420.02685073144136
20
10
10
420.02685073144136
20
30
10
405.00000000000011
20
29.999999999999993
10
390
20
45.000000000000007
10
390
20
60
0
CIRCLE
5
110
100
AcDbEntity
8
0
100
AcDbCircle
10
380
20
20
30
0
40
2.0000000000000129
210
0
220
0
230
1
0
CIRCLE
5
111
100
AcDbEntity
8
0
100
AcDbCircle
10
400.02685073144136
20
20
30
0
40
1.9999999999999925
210
0
220
0
230
1
0
CIRCLE
5
112
100
AcDbEntity
8
0
100
AcDbCircle
10
410.02685073144136
20
19.999999999999996
30
0
40
1.9999999999999982
210
0
220
0
230
1
0
CIRCLE
5
113
100
AcDbEntity
8
0
100
AcDbCircle
10
380
20
39.999999999999993
30
0
40
1.9999999999999885
210
0
220
0
230
1
0
CIRCLE
5
114
100
AcDbEntity
8
0
100
AcDbCircle
10
380
20
50
30
0
40
2.0000000000000133
210
0
220
0
230
1
0
LWPOLYLINE
5
115
100
AcDbEntity
8
0
100
AcDbPolyline
90
6
70
1
43
0.0
10
1.7763568394002505e-14
20
220.00000000000003
10
160
20
220.00000000000003
10
159.99999999999997
20
160.00000000000003
42
-0.41421356237309503
10
149.99999999999997
20
150.00000000000003
10
10.000000000000021
20
150.00000000000003
42
-0.41421356237309503
10
-1.1102230246251565e-14
20
160.00000000000006
0
CIRCLE
5
116
100
AcDbEntity
8
0
100
AcDbCircle
10
80.000000000000014
20
174.90000000000003
30
0
40
10.249999999999996
210
0
220
0
230
1
0
CIRCLE
5
117
100
AcDbEntity
8
0
100
AcDbCircle
10
95.499999999999986
20
190.39999999999998
30
0
40
2.0000000000000102
210
0
220
0
230
1
0
CIRCLE
5
118
100
AcDbEntity
8
0
100
AcDbCircle
10
64.500000000000014
20
190.39999999999998
30
0
40
1.999999999999996
210
0
220
0
230
1
0
CIRCLE
5
119
100
AcDbEntity
8
0
100
AcDbCircle
10
64.500000000000014
20
159.39999999999998
30
0
40
2.0000000000000053
210
0
220
0
230
1
0
CIRCLE
5
120
100
AcDbEntity
8
0
100
AcDbCircle
10
95.499999999999986
20
159.39999999999998
30
0
40
1.999999999999996
210
0
220
0
230
1
0
CIRCLE
5
121
100
AcDbEntity
8
0
100
AcDbCircle
10
42.5
20
161.50000000000003
30
0
40
5.0000000000000044
210
0
220
0
230
1
0
CIRCLE
5
122
100
AcDbEntity
8
0
100
AcDbCircle
10
117.5
20
161.50000000000003
30
0
40
5.0000000000000124
210
0
220
0
230
1
0
LWPOLYLINE
5
123
100
AcDbEntity
8
0
100
AcDbPolyline
90
4
70
1
43
0.0
10
202.23418070853799
20
256.79876064933859
10
202.23418070853799
20
189.79876064933862
10
222.23418070853799
20
189.79876064933859
10
262.23418070853802
20
256.79876064933859
0
LWPOLYLINE
5
124
100
AcDbEntity
8
0
100
AcDbPolyline
90
4
70
1
43
0.0
10
302.23418070853802
20
256.79876064933859
10
302.23418070853802
20
189.79876064933862
10
322.23418070853796
20
189.79876064933859
10
362.23418070853796
20
256.79876064933859
0
LWPOLYLINE
5
125
100
AcDbEntity
8
0
100
AcDbPolyline
90
4
70
1
43
0.0
10
282.23418070853802
20
59.798760649338618
10
302.23418070853796
20
59.798760649338583
10
342.23418070853796
20
126.79876064933858
10
282.23418070853802
20
126.79876064933862
0
LWPOLYLINE
5
126
100
AcDbEntity
8
0
100
AcDbPolyline
90
4
70
1
43
0.0
10
182.23418070853799
20
126.79876064933862
10
242.23418070853799
20
126.79876064933858
10
202.23418070853799
20
59.798760649338583
10
182.23418070853799
20
59.798760649338618
0
CIRCLE
5
127
100
AcDbEntity
8
0
100
AcDbCircle
10
455
20
50
30
0
40
2.0000000000000133
210
0
220
0
230
1
0
LWPOLYLINE
5
128
100
AcDbEntity
8
0
100
AcDbPolyline
90
7
70
1
43
0.0
10
465
20
60
10
445
20
59.999999999999972
10
445
20
10
10
495.02685073144136
20
10
10
495.02685073144136
20
30
10
480.00000000000011
20
29.999999999999993
10
465
20
45.000000000000007
0
CIRCLE
5
129
100
AcDbEntity
8
0
100
AcDbCircle
10
475.02685073144136
20
20
30
0
40
1.9999999999999925
210
0
220
0
230
1
0
CIRCLE
5
130
100
AcDbEntity
8
0
100
AcDbCircle
10
455
20
39.999999999999993
30
0
40
1.9999999999999885
210
0
220
0
230
1
0
CIRCLE
5
131
100
AcDbEntity
8
0
100
AcDbCircle
10
485.02685073144136
20
19.999999999999996
30
0
40
1.9999999999999982
210
0
220
0
230
1
0
CIRCLE
5
132
100
AcDbEntity
8
0
100
AcDbCircle
10
455
20
20
30
0
40
2.0000000000000129
210
0
220
0
230
1
0
CIRCLE
5
133
100
AcDbEntity
8
0
100
AcDbCircle
10
530
20
50
30
0
40
2.0000000000000133
210
0
220
0
230
1
0
LWPOLYLINE
5
134
100
AcDbEntity
8
0
100
AcDbPolyline
90
7
70
1
43
0.0
10
540
20
60
10
520
20
59.999999999999972
10
520
20
10
10
570.0268507314413
20
10
10
570.0268507314413
20
30
10
555.00000000000011
20
29.999999999999993
10
540
20
45.000000000000007
0
CIRCLE
5
135
100
AcDbEntity
8
0
100
AcDbCircle
10
550.0268507314413
20
20
30
0
40
1.9999999999999925
210
0
220
0
230
1
0
CIRCLE
5
136
100
AcDbEntity
8
0
100
AcDbCircle
10
530
20
39.999999999999993
30
0
40
1.9999999999999885
210
0
220
0
230
1
0
CIRCLE
5
137
100
AcDbEntity
8
0
100
AcDbCircle
10
560.0268507314413
20
19.999999999999996
30
0
40
1.9999999999999982
210
0
220
0
230
1
0
CIRCLE
5
138
100
AcDbEntity
8
0
100
AcDbCircle
10
530
20
20
30
0
40
2.0000000000000129
210
0
220
0
230
1
0
CIRCLE
5
139
100
AcDbEntity
8
0
100
AcDbCircle
10
380
20
112.5
30
0
40
2.0000000000000133
210
0
220
0
230
1
0
LWPOLYLINE
5
140
100
AcDbEntity
8
0
100
AcDbPolyline
90
7
70
1
43
0.0
10
390
20
122.5
10
370
20
122.49999999999997
10
370
20
72.5
10
420.02685073144136
20
72.5
10
420.02685073144136
20
92.5
10
405.00000000000011
20
92.5
10
390
20
107.5
0
CIRCLE
5
141
100
AcDbEntity
8
0
100
AcDbCircle
10
400.02685073144136
20
82.5
30
0
40
1.9999999999999925
210
0
220
0
230
1
0
CIRCLE
5
142
100
AcDbEntity
8
0
100
AcDbCircle
10
380
20
102.5
30
0
40
1.9999999999999885
210
0
220
0
230
1
0
CIRCLE
5
143
100
AcDbEntity
8
0
100
AcDbCircle
10
410.02685073144136
20
82.5
30
0
40
1.9999999999999982
210
0
220
0
230
1
0
CIRCLE
5
144
100
AcDbEntity
8
0
100
AcDbCircle
10
380
20
82.5
30
0
40
2.0000000000000129
210
0
220
0
230
1
0
CIRCLE
5
145
100
AcDbEntity
8
0
100
AcDbCircle
10
455
20
112.5
30
0
40
2.0000000000000133
210
0
220
0
230
1
0
LWPOLYLINE
5
146
100
AcDbEntity
8
0
100
AcDbPolyline
90
7
70
1
43
0.0
10
465
20
122.5
10
445
20
122.49999999999997
10
445
20
72.5
10
495.02685073144136
20
72.5
10
495.02685073144136
20
92.5
10
480.00000000000011
20
92.5
10
465
20
107.5
0
CIRCLE
5
147
100
AcDbEntity
8
0
100
AcDbCircle
10
475.02685073144136
20
82.5
30
0
40
1.9999999999999925
210
0
220
0
230
1
0
CIRCLE
5
148
100
AcDbEntity
8
0
100
AcDbCircle
10
455
20
102.5
30
0
40
1.9999999999999885
210
0
220
0
230
1
0
CIRCLE
5
149
100
AcDbEntity
8
0
100
AcDbCircle
10
485.02685073144136
20
82.5
30
0
40
1.9999999999999982
210
0
220
0
230
1
0
CIRCLE
5
150
100
AcDbEntity
8
0
100
AcDbCircle
10
455
20
82.5
30
0
40
2.0000000000000129
210
0
220
0
230
1
0
CIRCLE
5
151
100
AcDbEntity
8
0
100
AcDbCircle
10
530
20
112.5
30
0
40
2.0000000000000133
210
0
220
0
230
1
0
LWPOLYLINE
5
152
100
AcDbEntity
8
0
100
AcDbPolyline
90
7
70
1
43
0.0
10
540
20
122.5
10
520
20
122.49999999999997
10
520
20
72.5
10
570.0268507314413
20
72.5
10
570.0268507314413
20
92.5
10
555.00000000000011
20
92.5
10
540
20
107.5
0
CIRCLE
5
153
100
AcDbEntity
8
0
100
AcDbCircle
10
550.0268507314413
20
82.5
30
0
40
1.9999999999999925
210
0
220
0
230
1
0
CIRCLE
5
154
100
AcDbEntity
8
0
100
AcDbCircle
10
530
20
102.5
30
0
40
1.9999999999999885
210
0
220
0
230
1
0
CIRCLE
5
155
100
AcDbEntity
8
0
100
AcDbCircle
10
560.0268507314413
20
82.5
30
0
40
1.9999999999999982
210
0
220
0
230
1
0
CIRCLE
5
156
100
AcDbEntity
8
0
100
AcDbCircle
10
530
20
82.5
30
0
40
2.0000000000000129
210
0
220
0
230
1
0
CIRCLE
5
157
100
AcDbEntity
8
0
100
AcDbCircle
10
380
20
175
30
0
40
2.0000000000000133
210
0
220
0
230
1
0
LWPOLYLINE
5
158
100
AcDbEntity
8
0
100
AcDbPolyline
90
7
70
1
43
0.0
10
390
20
185
10
370
20
184.99999999999997
10
370
20
135
10
420.02685073144136
20
135
10
420.02685073144136
20
155
10
405.00000000000011
20
155
10
390
20
170
0
CIRCLE
5
159
100
AcDbEntity
8
0
100
AcDbCircle
10
400.02685073144136
20
145
30
0
40
1.9999999999999925
210
0
220
0
230
1
0
CIRCLE
5
160
100
AcDbEntity
8
0
100
AcDbCircle
10
380
20
165
30
0
40
1.9999999999999885
210
0
220
0
230
1
0
CIRCLE
5
161
100
AcDbEntity
8
0
100
AcDbCircle
10
410.02685073144136
20
145
30
0
40
1.9999999999999982
210
0
220
0
230
1
0
CIRCLE
5
162
100
AcDbEntity
8
0
100
AcDbCircle
10
380
20
145
30
0
40
2.0000000000000129
210
0
220
0
230
1
0
CIRCLE
5
163
100
AcDbEntity
8
0
100
AcDbCircle
10
455
20
175
30
0
40
2.0000000000000133
210
0
220
0
230
1
0
LWPOLYLINE
5
164
100
AcDbEntity
8
0
100
AcDbPolyline
90
7
70
1
43
0.0
10
465
20
185
10
445
20
184.99999999999997
10
445
20
135
10
495.02685073144136
20
135
10
495.02685073144136
20
155
10
480.00000000000011
20
155
10
465
20
170
0
CIRCLE
5
165
100
AcDbEntity
8
0
100
AcDbCircle
10
475.02685073144136
20
145
30
0
40
1.9999999999999925
210
0
220
0
230
1
0
CIRCLE
5
166
100
AcDbEntity
8
0
100
AcDbCircle
10
455
20
165
30
0
40
1.9999999999999885
210
0
220
0
230
1
0
CIRCLE
5
167
100
AcDbEntity
8
0
100
AcDbCircle
10
485.02685073144136
20
145
30
0
40
1.9999999999999982
210
0
220
0
230
1
0
CIRCLE
5
168
100
AcDbEntity
8
0
100
AcDbCircle
10
455
20
145
30
0
40
2.0000000000000129
210
0
220
0
230
1
0
CIRCLE
5
169
100
AcDbEntity
8
0
100
AcDbCircle
10
530
20
175
30
0
40
2.0000000000000133
210
0
220
0
230
1
0
LWPOLYLINE
5
170
100
AcDbEntity
8
0
100
AcDbPolyline
90
7
70
1
43
0.0
10
540
20
185
10
520
20
184.99999999999997
10
520
20
135
10
570.0268507314413
20
135
10
570.0268507314413
20
155
10
555.00000000000011
20
155
10
540
20
170
0
CIRCLE
5
171
100
AcDbEntity
8
0
100
AcDbCircle
10
550.0268507314413
20
145
30
0
40
1.9999999999999925
210
0
220
0
230
1
0
CIRCLE
5
172
100
AcDbEntity
8
0
100
AcDbCircle
10
530
20
165
30
0
40
1.9999999999999885
210
0
220
0
230
1
0
CIRCLE
5
173
100
AcDbEntity
8
0
100
AcDbCircle
10
560.0268507314413
20
145
30
0
40
1.9999999999999982
210
0
220
0
230
1
0
CIRCLE
5
174
100
AcDbEntity
8
0
100
AcDbCircle
10
530
20
145
30
0
40
2.0000000000000129
210
0
220
0
230
1
0
CIRCLE
5
175
100
AcDbEntity
8
0
100
AcDbCircle
10
380
20
237.5
30
0
40
2.0000000000000133
210
0
220
0
230
1
0
LWPOLYLINE
5
176
100
AcDbEntity
8
0
100
AcDbPolyline
90
7
70
1
43
0.0
10
390
20
247.5
10
370
20
247.49999999999997
10
370
20
197.5
10
420.02685073144136
20
197.5
10
420.02685073144136
20
217.5
10
405.00000000000011
20
217.5
10
390
20
232.5
0
CIRCLE
5
177
100
AcDbEntity
8
0
100
AcDbCircle
10
400.02685073144136
20
207.5
30
0
40
1.9999999999999925
210
0
220
0
230
1
0
CIRCLE
5
178
100
AcDbEntity
8
0
100
AcDbCircle
10
380
20
227.5
30
0
40
1.9999999999999885
210
0
220
0
230
1
0
CIRCLE
5
179
100
AcDbEntity
8
0
100
AcDbCircle
10
410.02685073144136
20
207.5
30
0
40
1.9999999999999982
210
0
220
0
230
1
0
CIRCLE
5
180
100
AcDbEntity
8
0
100
AcDbCircle
10
380
20
207.5
30
0
40
2.0000000000000129
210
0
220
0
230
1
0
CIRCLE
5
181
100
AcDbEntity
8
0
100
AcDbCircle
10
455
20
237.5
30
0
40
2.0000000000000133
210
0
220
0
230
1
0
LWPOLYLINE
5
182
100
AcDbEntity
8
0
100
AcDbPolyline
90
7
70
1
43
0.0
10
465
20
247.5
10
445
20
247.49999999999997
10
445
20
197.5
10
495.02685073144136
20
197.5
10
495.02685073144136
20
217.5
10
480.00000000000011
20
217.5
10
465
20
232.5
0
CIRCLE
5
183
100
AcDbEntity
8
0
100
AcDbCircle
10
475.02685073144136
20
207.5
30
0
40
1.9999999999999925
210
0
220
0
230
1
0
CIRCLE
5
184
100
AcDbEntity
8
0
100
AcDbCircle
10
455
20
227.5
30
0
40
1.9999999999999885
210
0
220
0
230
1
0
CIRCLE
5
185
100
AcDbEntity
8
0
100
AcDbCircle
10
485.02685073144136
20
207.5
30
0
40
1.9999999999999982
210
0
220
0
230
1
0
CIRCLE
5
186
100
AcDbEntity
8
0
100
AcDbCircle
10
455
20
207.5
30
0
40
2.0000000000000129
210
0
220
0
230
1
0
CIRCLE
5
187
100
AcDbEntity
8
0
100
AcDbCircle
10
530
20
237.5
30
0
40
2.0000000000000133
210
0
220
0
230
1
0
LWPOLYLINE
5
188
100
AcDbEntity
8
0
100
AcDbPolyline
90
7
70
1
43
0.0
10
540
20
247.5
10
520
20
247.49999999999997
10
520
20
197.5
10
570.0268507314413
20
197.5
10
570.0268507314413
20
217.5
10
555.00000000000011
20
217.5
10
540
20
232.5
0
CIRCLE
5
189
100
AcDbEntity
8
0
100
AcDbCircle
10
550.0268507314413
20
207.5
30
0
40
1.9999999999999925
210
0
220
0
230
1
0
CIRCLE
5
190
100
AcDbEntity
8
0
100
AcDbCircle
10
530
20
227.5
30
0
40
1.9999999999999885
210
0
220
0
230
1
0
CIRCLE
5
191
100
AcDbEntity
8
0
100
AcDbCircle
10
560.0268507314413
20
207.5
30
0
40
1.9999999999999982
210
0
220
0
230
1
0
CIRCLE
5
192
100
AcDbEntity
8
0
100
AcDbCircle
10
530
20
207.5
30
0
40
2.0000000000000129
210
0
220
0
230
1
0
CIRCLE
5
193
100
AcDbEntity
8
0
100
AcDbCircle
10
380
20
300
30
0
40
2.0000000000000133
210
0
220
0
230
1
0
LWPOLYLINE
5
194
100
AcDbEntity
8
0
100
AcDbPolyline
90
7
70
1
43
0.0
10
390
20
310
10
370
20
309.99999999999994
10
370
20
260
10
420.02685073144136
20
260
10
420.02685073144136
20
280
10
405.00000000000011
20
280
10
390
20
295
0
CIRCLE
5
195
100
AcDbEntity
8
0
100
AcDbCircle
10
400.02685073144136
20
270
30
0
40
1.9999999999999925
210
0
220
0
230
1
0
CIRCLE
5
196
100
AcDbEntity
8
0
100
AcDbCircle
10
380
20
290
30
0
40
1.9999999999999885
210
0
220
0
230
1
0
CIRCLE
5
197
100
AcDbEntity
8
0
100
AcDbCircle
10
410.02685073144136
20
270
30
0
40
1.9999999999999982
210
0
220
0
230
1
0
CIRCLE
5
198
100
AcDbEntity
8
0
100
AcDbCircle
10
380
20
270
30
0
40
2.0000000000000129
210
0
220
0
230
1
0
CIRCLE
5
199
100
AcDbEntity
8
0
100
AcDbCircle
10
455
20
300
30
0
40
2.0000000000000133
210
0
220
0
230
1
0
LWPOLYLINE
5
200
100
AcDbEntity
8
0
100
AcDbPolyline
90
7
70
1
43
0.0
10
465
20
310
10
445
20
309.99999999999994
10
445
20
260
10
495.02685073144136
20
260
10
495.02685073144136
20
280
10
480.00000000000011
20
280
10
465
20
295
0
CIRCLE
5
201
100
AcDbEntity
8
0
100
AcDbCircle
10
475.02685073144136
20
270
30
0
40
1.9999999999999925
210
0
220
0
230
1
0
CIRCLE
5
202
100
AcDbEntity
8
0
100
AcDbCircle
10
455
20
290
30
0
40
1.9999999999999885
210
0
220
0
230
1
0
CIRCLE
5
203
100
AcDbEntity
8
0
100
AcDbCircle
10
485.02685073144136
20
270
30
0
40
1.9999999999999982
210
0
220
0
230
1
0
CIRCLE
5
204
100
AcDbEntity
8
0
100
AcDbCircle
10
455
20
270
30
0
40
2.0000000000000129
210
0
220
0
230
1
0
CIRCLE
5
205
100
AcDbEntity
8
0
100
AcDbCircle
10
530
20
300
30
0
40
2.0000000000000133
210
0
220
0
230
1
0
LWPOLYLINE
5
206
100
AcDbEntity
8
0
100
AcDbPolyline
90
7
70
1
43
0.0
10
540
20
310
10
520
20
309.99999999999994
10
520
20
260
10
570.0268507314413
20
260
10
570.0268507314413
20
280
10
555.00000000000011
20
280
10
540
20
295
0
CIRCLE
5
207
100
AcDbEntity
8
0
100
AcDbCircle
10
550.0268507314413
20
270
30
0
40
1.9999999999999925
210
0
220
0
230
1
0
CIRCLE
5
208
100
AcDbEntity
8
0
100
AcDbCircle
10
530
20
290
30
0
40
1.9999999999999885
210
0
220
0
230
1
0
CIRCLE
5
209
100
AcDbEntity
8
0
100
AcDbCircle
10
560.0268507314413
20
270
30
0
40
1.9999999999999982
210
0
220
0
230
1
0
CIRCLE
5
210
100
AcDbEntity
8
0
100
AcDbCircle
10
530
20
270
30
0
40
2.0000000000000129
210
0
220
0
230
1
0
LWPOLYLINE
5
211
100
AcDbEntity
8
0
100
AcDbPolyline
90
6
70
1
43
0.0
10
335
20
350
10
335
20
290
42
-0.41421356237309503
10
325
20
280
10
185.00000000000003
20
280.00000000000006
42
-0.41421356237309503
10
175
20
290.00000000000006
10
175
20
350
0
CIRCLE
5
212
100
AcDbEntity
8
0
100
AcDbCircle
10
239.50000000000003
20
320.39999999999998
30
0
40
1.999999999999996
210
0
220
0
230
1
0
CIRCLE
5
213
100
AcDbEntity
8
0
100
AcDbCircle
10
270.5
20
320.39999999999998
30
0
40
2.0000000000000102
210
0
220
0
230
1
0
CIRCLE
5
214
100
AcDbEntity
8
0
100
AcDbCircle
10
255
20
304.90000000000003
30
0
40
10.249999999999996
210
0
220
0
230
1
0
CIRCLE
5
215
100
AcDbEntity
8
0
100
AcDbCircle
10
10
20
240
30
0
40
2
210
0
220
0
230
1
0
CIRCLE
5
216
100
AcDbEntity
8
0
100
AcDbCircle
10
150
20
240
30
0
40
2
210
0
220
0
230
1
0
CIRCLE
5
217
100
AcDbEntity
8
0
100
AcDbCircle
10
150
20
280
30
0
40
2.0000000000000018
210
0
220
0
230
1
0
LWPOLYLINE
5
218
100
AcDbEntity
8
0
100
AcDbPolyline
90
4
70
1
43
0.0
10
160
20
360
10
0
20
360
10
0
20
230
10
160
20
230
0
CIRCLE
5
219
100
AcDbEntity
8
0
100
AcDbCircle
10
105
20
280
30
0
40
1.9999999999999956
210
0
220
0
230
1
0
CIRCLE
5
220
100
AcDbEntity
8
0
100
AcDbCircle
10
10
20
255
30
0
40
2.0000000000000009
210
0
220
0
230
1
0
CIRCLE
5
221
100
AcDbEntity
8
0
100
AcDbCircle
10
55
20
280
30
0
40
1.9999999999999951
210
0
220
0
230
1
0
CIRCLE
5
222
100
AcDbEntity
8
0
100
AcDbCircle
10
150
20
255
30
0
40
2.0000000000000009
210
0
220
0
230
1
0
CIRCLE
5
223
100
AcDbEntity
8
0
100
AcDbCircle
10
239.50000000000003
20
289.39999999999998
30
0
40
2.0000000000000053
210
0
220
0
230
1
0
CIRCLE
5
224
100
AcDbEntity
8
0
100
AcDbCircle
10
10.000000000000002
20
280
30
0
40
2.0000000000000018
210
0
220
0
230
1
0
CIRCLE
5
225
100
AcDbEntity
8
0
100
AcDbCircle
10
270.5
20
289.39999999999998
30
0
40
1.999999999999996
210
0
220
0
230
1
0
CIRCLE
5
226
100
AcDbEntity
8
0
100
AcDbCircle
10
292.5
20
291.50000000000006
30
0
40
5.0000000000000124
210
0
220
0
230
1
0
CIRCLE
5
227
100
AcDbEntity
8
0
100
AcDbCircle
10
217.5
20
291.50000000000006
30
0
40
5.0000000000000044
210
0
220
0
230
1
0
ENDSEC
0
SECTION
2
OBJECTS
0
DICTIONARY
5
C
100
AcDbDictionary
3
ACAD_GROUP
350
D
3
ACAD_MLINESTYLE
350
17
0
DICTIONARY
5
D
100
AcDbDictionary
0
DICTIONARY
5
1A
330
C
100
AcDbDictionary
0
DICTIONARY
5
17
100
AcDbDictionary
0
ENDSEC
0
EOF
